<?xml version="1.0" standalone="no"?>
<!DOCTYPE svg PUBLIC "-//W3C//DTD SVG 20010904//EN"
 "http://www.w3.org/TR/2001/REC-SVG-20010904/DTD/svg10.dtd">
<svg version="1.0" xmlns="http://www.w3.org/2000/svg"
 width="88.000000pt" height="88.000000pt" viewBox="0 0 88.000000 88.000000"
 preserveAspectRatio="xMidYMid meet">
<metadata>
Created by potrace 1.14, written by Peter Selinger 2001-2017
</metadata>
<g transform="translate(0.000000,88.000000) scale(0.100000,-0.100000)"
fill="#000000" stroke="none">
<path d="M286 639 c-14 -17 -26 -35 -26 -41 0 -6 11 4 23 23 13 19 29 33 35
32 7 -2 12 2 12 7 0 19 -18 10 -44 -21z"/>
<path d="M700 583 c0 -6 9 -21 21 -34 l20 -24 -17 30 c-24 39 -24 40 -24 28z"/>
<path d="M232 533 c-24 -62 -31 -103 -18 -110 7 -5 29 -39 50 -78 22 -38 47
-79 58 -91 12 -14 20 -41 23 -77 3 -49 1 -59 -18 -72 -15 -11 -17 -15 -6 -15
8 0 21 6 28 13 10 10 11 8 6 -8 -6 -16 -5 -17 4 -5 6 8 8 38 6 66 -6 58 9 73
48 52 21 -11 21 -11 2 -18 -11 -4 -14 -9 -8 -13 6 -4 16 0 22 7 9 11 7 17 -9
29 -21 14 -20 15 10 19 35 5 45 -5 42 -43 -3 -44 15 -79 48 -90 16 -6 28 -14
25 -18 -5 -10 67 -51 89 -51 9 0 16 4 16 10 0 9 -18 15 -64 22 -11 2 -21 9
-23 15 -5 14 47 8 80 -9 9 -5 17 -6 17 -3 0 11 -92 45 -121 45 -34 0 -49 27
-49 91 0 45 23 109 40 109 6 0 9 4 5 9 -3 5 6 26 20 46 13 21 22 41 19 46 -3
5 0 9 5 9 6 0 11 7 11 15 0 28 -16 15 -39 -32 -13 -26 -32 -54 -42 -61 -11 -7
-17 -17 -15 -21 7 -11 -54 -67 -82 -76 -41 -12 -79 13 -122 81 -22 35 -40 66
-40 69 0 3 15 6 33 6 l32 2 -30 4 c-37 6 -55 20 -55 44 0 19 35 23 58 6 8 -7
12 -5 12 6 0 28 20 29 30 3 12 -32 15 -32 16 -1 1 14 -2 22 -7 19 -5 -3 -9 0
-9 5 0 6 -18 11 -41 11 -22 0 -38 -4 -35 -8 3 -5 -2 -9 -10 -9 -8 0 -13 7 -12
16 2 12 17 17 56 19 29 2 50 7 47 12 -3 5 -25 7 -50 4 -37 -3 -43 -1 -39 11 4
8 4 15 1 15 -2 0 -9 -12 -15 -27z"/>
<path d="M435 539 c-16 -7 -12 -8 20 -7 59 1 75 -1 75 -11 0 -5 -19 -9 -42 -9
-61 0 -99 -17 -91 -39 8 -24 24 -43 35 -43 5 0 4 9 -2 21 -13 23 -7 49 10 49
6 0 9 -4 6 -9 -3 -4 6 -6 20 -3 22 4 25 2 22 -19 -2 -20 1 -24 20 -22 13 2 21
-1 17 -7 -3 -6 -16 -10 -28 -10 -12 0 -29 -5 -37 -11 -11 -7 -7 -9 17 -5 33 4
52 -7 33 -19 -5 -3 -10 -12 -10 -18 0 -7 6 -3 12 8 7 11 11 21 10 22 -1 2 10
14 23 27 22 22 26 56 6 56 -4 0 -7 9 -8 21 -1 14 3 19 12 15 9 -3 12 0 8 10
-6 16 -94 19 -128 3z m93 -60 c-2 -6 -8 -10 -13 -10 -5 0 -11 4 -13 10 -2 6 4
11 13 11 9 0 15 -5 13 -11z"/>
<path d="M710 521 c0 -5 7 -12 16 -15 14 -5 15 -4 4 9 -14 17 -20 19 -20 6z"/>
<path d="M671 474 c0 -11 3 -14 6 -6 3 7 2 16 -1 19 -3 4 -6 -2 -5 -13z"/>
<path d="M701 474 c0 -11 3 -14 6 -6 3 7 2 16 -1 19 -3 4 -6 -2 -5 -13z"/>
<path d="M709 370 c-4 -41 21 -120 37 -120 2 0 0 8 -5 18 -6 11 -10 27 -10 38
1 10 -3 39 -9 64 l-9 45 -4 -45z"/>
<path d="M357 367 c-3 -9 -2 -17 2 -17 5 0 16 -3 25 -6 12 -4 16 0 16 16 0 18
-3 20 -14 11 -11 -9 -15 -9 -18 1 -3 8 -7 6 -11 -5z"/>
<path d="M589 358 c-5 -18 -6 -38 -1 -34 7 8 12 36 6 36 -2 0 -4 -1 -5 -2z"/>
<path d="M365 300 c10 -11 23 -20 29 -20 6 0 2 6 -9 13 -18 11 -17 12 20 18
l40 6 -49 2 c-48 1 -49 1 -31 -19z"/>
<path d="M686 301 c-4 -6 -3 -18 2 -27 8 -15 10 -14 16 2 8 20 -8 42 -18 25z"/>
<path d="M649 256 c-9 -17 -24 -31 -34 -31 -20 0 -32 -20 -17 -29 5 -3 23 8
40 25 26 26 31 27 35 12 2 -10 4 -3 4 15 0 44 -9 46 -28 8z"/>
<path d="M756 282 c-3 -5 1 -9 9 -9 8 0 12 4 9 9 -3 4 -7 8 -9 8 -2 0 -6 -4
-9 -8z"/>
<path d="M260 261 c0 -6 4 -13 10 -16 6 -3 7 1 4 9 -7 18 -14 21 -14 7z"/>
<path d="M549 214 c-5 -15 -8 -29 -5 -31 2 -2 8 10 14 26 13 38 5 41 -9 5z"/>
<path d="M234 221 c4 -6 16 -16 28 -22 15 -8 18 -8 14 0 -4 6 -16 16 -28 22
-15 8 -18 8 -14 0z"/>
<path d="M300 205 c-6 -8 -10 -19 -8 -24 1 -6 8 1 15 14 13 28 11 31 -7 10z"/>
<path d="M505 209 c-4 -6 -5 -12 -2 -15 2 -3 7 2 10 11 7 17 1 20 -8 4z"/>
<path d="M580 171 c0 -25 6 -27 13 -6 4 8 2 17 -3 20 -6 4 -10 -3 -10 -14z"/>
<path d="M238 93 c12 -2 32 -2 45 0 12 2 2 4 -23 4 -25 0 -35 -2 -22 -4z"/>
</g>
</svg>
